<mxfile host="app.diagrams.net" modified="2023-05-31T20:24:37.211Z" agent="Mozilla/5.0 (Windows NT 10.0; Win64; x64) AppleWebKit/537.36 (KHTML, like Gecko) Chrome/113.0.0.0 Safari/537.36" etag="RY1mGJ2Hw2PLe4WEoTFS" version="21.3.6" type="device">
  <diagram name="Page-1" id="7wjOfhBpm7SDzt30uioD">
    <mxGraphModel dx="2812" dy="882" grid="1" gridSize="10" guides="1" tooltips="1" connect="1" arrows="1" fold="1" page="1" pageScale="1" pageWidth="827" pageHeight="1169" math="0" shadow="0">
      <root>
        <mxCell id="0" />
        <mxCell id="1" parent="0" />
        <mxCell id="Md2F8njUrPGA3VP_r_Gf-30" style="edgeStyle=orthogonalEdgeStyle;rounded=0;orthogonalLoop=1;jettySize=auto;html=1;" edge="1" parent="1" source="Md2F8njUrPGA3VP_r_Gf-1" target="Md2F8njUrPGA3VP_r_Gf-24">
          <mxGeometry relative="1" as="geometry" />
        </mxCell>
        <mxCell id="Md2F8njUrPGA3VP_r_Gf-31" style="edgeStyle=orthogonalEdgeStyle;rounded=0;orthogonalLoop=1;jettySize=auto;html=1;entryX=0.5;entryY=0;entryDx=0;entryDy=0;" edge="1" parent="1" source="Md2F8njUrPGA3VP_r_Gf-1" target="Md2F8njUrPGA3VP_r_Gf-2">
          <mxGeometry relative="1" as="geometry" />
        </mxCell>
        <mxCell id="Md2F8njUrPGA3VP_r_Gf-1" value="1" style="ellipse;whiteSpace=wrap;html=1;aspect=fixed;" vertex="1" parent="1">
          <mxGeometry x="290" y="20" width="60" height="60" as="geometry" />
        </mxCell>
        <mxCell id="Md2F8njUrPGA3VP_r_Gf-89" style="edgeStyle=orthogonalEdgeStyle;rounded=0;orthogonalLoop=1;jettySize=auto;html=1;exitX=0;exitY=0.5;exitDx=0;exitDy=0;" edge="1" parent="1" source="Md2F8njUrPGA3VP_r_Gf-2">
          <mxGeometry relative="1" as="geometry">
            <mxPoint x="-160" y="1112.857142857143" as="targetPoint" />
          </mxGeometry>
        </mxCell>
        <mxCell id="Md2F8njUrPGA3VP_r_Gf-2" value="2" style="ellipse;whiteSpace=wrap;html=1;aspect=fixed;" vertex="1" parent="1">
          <mxGeometry x="180" y="90" width="60" height="60" as="geometry" />
        </mxCell>
        <mxCell id="Md2F8njUrPGA3VP_r_Gf-37" style="edgeStyle=orthogonalEdgeStyle;rounded=0;orthogonalLoop=1;jettySize=auto;html=1;exitX=0.5;exitY=1;exitDx=0;exitDy=0;" edge="1" parent="1" target="Md2F8njUrPGA3VP_r_Gf-8">
          <mxGeometry relative="1" as="geometry">
            <mxPoint x="420" y="585" as="sourcePoint" />
          </mxGeometry>
        </mxCell>
        <mxCell id="Md2F8njUrPGA3VP_r_Gf-56" style="edgeStyle=orthogonalEdgeStyle;rounded=0;orthogonalLoop=1;jettySize=auto;html=1;exitX=0.5;exitY=1;exitDx=0;exitDy=0;entryX=0.5;entryY=0;entryDx=0;entryDy=0;" edge="1" parent="1" source="Md2F8njUrPGA3VP_r_Gf-4">
          <mxGeometry relative="1" as="geometry">
            <mxPoint x="290" y="910" as="targetPoint" />
          </mxGeometry>
        </mxCell>
        <mxCell id="Md2F8njUrPGA3VP_r_Gf-65" style="edgeStyle=orthogonalEdgeStyle;rounded=0;orthogonalLoop=1;jettySize=auto;html=1;exitX=0;exitY=0.5;exitDx=0;exitDy=0;entryX=0.5;entryY=0;entryDx=0;entryDy=0;" edge="1" parent="1" source="Md2F8njUrPGA3VP_r_Gf-4" target="Md2F8njUrPGA3VP_r_Gf-19">
          <mxGeometry relative="1" as="geometry" />
        </mxCell>
        <mxCell id="Md2F8njUrPGA3VP_r_Gf-4" value="20" style="ellipse;whiteSpace=wrap;html=1;aspect=fixed;" vertex="1" parent="1">
          <mxGeometry x="260" y="800" width="60" height="60" as="geometry" />
        </mxCell>
        <mxCell id="Md2F8njUrPGA3VP_r_Gf-54" style="edgeStyle=orthogonalEdgeStyle;rounded=0;orthogonalLoop=1;jettySize=auto;html=1;exitX=0.5;exitY=1;exitDx=0;exitDy=0;entryX=0.5;entryY=0;entryDx=0;entryDy=0;" edge="1" parent="1" source="Md2F8njUrPGA3VP_r_Gf-5" target="Md2F8njUrPGA3VP_r_Gf-12">
          <mxGeometry relative="1" as="geometry" />
        </mxCell>
        <mxCell id="Md2F8njUrPGA3VP_r_Gf-84" style="edgeStyle=orthogonalEdgeStyle;rounded=0;orthogonalLoop=1;jettySize=auto;html=1;exitX=0;exitY=0.5;exitDx=0;exitDy=0;entryX=0.5;entryY=0;entryDx=0;entryDy=0;" edge="1" parent="1" source="Md2F8njUrPGA3VP_r_Gf-5" target="Md2F8njUrPGA3VP_r_Gf-83">
          <mxGeometry relative="1" as="geometry" />
        </mxCell>
        <mxCell id="Md2F8njUrPGA3VP_r_Gf-5" value="17" style="ellipse;whiteSpace=wrap;html=1;aspect=fixed;" vertex="1" parent="1">
          <mxGeometry x="260" y="585" width="60" height="60" as="geometry" />
        </mxCell>
        <mxCell id="Md2F8njUrPGA3VP_r_Gf-39" style="edgeStyle=orthogonalEdgeStyle;rounded=0;orthogonalLoop=1;jettySize=auto;html=1;exitX=0.5;exitY=1;exitDx=0;exitDy=0;entryX=0.5;entryY=0;entryDx=0;entryDy=0;" edge="1" parent="1" source="Md2F8njUrPGA3VP_r_Gf-6" target="Md2F8njUrPGA3VP_r_Gf-13">
          <mxGeometry relative="1" as="geometry" />
        </mxCell>
        <mxCell id="Md2F8njUrPGA3VP_r_Gf-6" value="9" style="ellipse;whiteSpace=wrap;html=1;aspect=fixed;" vertex="1" parent="1">
          <mxGeometry x="390" y="710" width="60" height="60" as="geometry" />
        </mxCell>
        <mxCell id="Md2F8njUrPGA3VP_r_Gf-38" style="edgeStyle=orthogonalEdgeStyle;rounded=0;orthogonalLoop=1;jettySize=auto;html=1;exitX=0.5;exitY=1;exitDx=0;exitDy=0;entryX=0.5;entryY=0;entryDx=0;entryDy=0;" edge="1" parent="1" source="Md2F8njUrPGA3VP_r_Gf-8" target="Md2F8njUrPGA3VP_r_Gf-6">
          <mxGeometry relative="1" as="geometry" />
        </mxCell>
        <mxCell id="Md2F8njUrPGA3VP_r_Gf-8" value="8.2" style="ellipse;whiteSpace=wrap;html=1;aspect=fixed;" vertex="1" parent="1">
          <mxGeometry x="390" y="620" width="60" height="60" as="geometry" />
        </mxCell>
        <mxCell id="Md2F8njUrPGA3VP_r_Gf-53" style="edgeStyle=orthogonalEdgeStyle;rounded=0;orthogonalLoop=1;jettySize=auto;html=1;exitX=0.5;exitY=1;exitDx=0;exitDy=0;entryX=0.5;entryY=0;entryDx=0;entryDy=0;" edge="1" parent="1" target="Md2F8njUrPGA3VP_r_Gf-5">
          <mxGeometry relative="1" as="geometry">
            <mxPoint x="290" y="370" as="sourcePoint" />
          </mxGeometry>
        </mxCell>
        <mxCell id="Md2F8njUrPGA3VP_r_Gf-63" style="edgeStyle=orthogonalEdgeStyle;rounded=0;orthogonalLoop=1;jettySize=auto;html=1;exitX=0;exitY=0.5;exitDx=0;exitDy=0;entryX=0.5;entryY=1;entryDx=0;entryDy=0;" edge="1" parent="1" source="Md2F8njUrPGA3VP_r_Gf-10" target="Md2F8njUrPGA3VP_r_Gf-16">
          <mxGeometry relative="1" as="geometry" />
        </mxCell>
        <mxCell id="Md2F8njUrPGA3VP_r_Gf-79" style="edgeStyle=orthogonalEdgeStyle;rounded=0;orthogonalLoop=1;jettySize=auto;html=1;exitX=0.5;exitY=1;exitDx=0;exitDy=0;entryX=0.062;entryY=0.693;entryDx=0;entryDy=0;entryPerimeter=0;" edge="1" parent="1" source="Md2F8njUrPGA3VP_r_Gf-10" target="Md2F8njUrPGA3VP_r_Gf-21">
          <mxGeometry relative="1" as="geometry" />
        </mxCell>
        <mxCell id="Md2F8njUrPGA3VP_r_Gf-10" value="22" style="ellipse;whiteSpace=wrap;html=1;aspect=fixed;" vertex="1" parent="1">
          <mxGeometry x="140" y="1050" width="60" height="60" as="geometry" />
        </mxCell>
        <mxCell id="Md2F8njUrPGA3VP_r_Gf-41" style="edgeStyle=orthogonalEdgeStyle;rounded=0;orthogonalLoop=1;jettySize=auto;html=1;exitX=0.5;exitY=1;exitDx=0;exitDy=0;entryX=0.5;entryY=0;entryDx=0;entryDy=0;" edge="1" parent="1" source="Md2F8njUrPGA3VP_r_Gf-11" target="Md2F8njUrPGA3VP_r_Gf-23">
          <mxGeometry relative="1" as="geometry" />
        </mxCell>
        <mxCell id="Md2F8njUrPGA3VP_r_Gf-50" style="edgeStyle=orthogonalEdgeStyle;rounded=0;orthogonalLoop=1;jettySize=auto;html=1;exitX=1;exitY=1;exitDx=0;exitDy=0;entryX=0.5;entryY=0;entryDx=0;entryDy=0;" edge="1" parent="1" source="Md2F8njUrPGA3VP_r_Gf-11" target="Md2F8njUrPGA3VP_r_Gf-47">
          <mxGeometry relative="1" as="geometry" />
        </mxCell>
        <mxCell id="Md2F8njUrPGA3VP_r_Gf-11" value="12" style="ellipse;whiteSpace=wrap;html=1;aspect=fixed;" vertex="1" parent="1">
          <mxGeometry x="390" y="900" width="60" height="60" as="geometry" />
        </mxCell>
        <mxCell id="Md2F8njUrPGA3VP_r_Gf-55" style="edgeStyle=orthogonalEdgeStyle;rounded=0;orthogonalLoop=1;jettySize=auto;html=1;exitX=0.5;exitY=1;exitDx=0;exitDy=0;entryX=0.5;entryY=0;entryDx=0;entryDy=0;" edge="1" parent="1" source="Md2F8njUrPGA3VP_r_Gf-12" target="Md2F8njUrPGA3VP_r_Gf-4">
          <mxGeometry relative="1" as="geometry" />
        </mxCell>
        <mxCell id="Md2F8njUrPGA3VP_r_Gf-12" value="19" style="ellipse;whiteSpace=wrap;html=1;aspect=fixed;" vertex="1" parent="1">
          <mxGeometry x="260" y="690" width="60" height="60" as="geometry" />
        </mxCell>
        <mxCell id="Md2F8njUrPGA3VP_r_Gf-40" style="edgeStyle=orthogonalEdgeStyle;rounded=0;orthogonalLoop=1;jettySize=auto;html=1;exitX=0.5;exitY=1;exitDx=0;exitDy=0;" edge="1" parent="1" source="Md2F8njUrPGA3VP_r_Gf-13" target="Md2F8njUrPGA3VP_r_Gf-11">
          <mxGeometry relative="1" as="geometry" />
        </mxCell>
        <mxCell id="Md2F8njUrPGA3VP_r_Gf-45" style="edgeStyle=orthogonalEdgeStyle;rounded=0;orthogonalLoop=1;jettySize=auto;html=1;exitX=1;exitY=0.5;exitDx=0;exitDy=0;entryX=0.5;entryY=0;entryDx=0;entryDy=0;" edge="1" parent="1" source="Md2F8njUrPGA3VP_r_Gf-13" target="Md2F8njUrPGA3VP_r_Gf-42">
          <mxGeometry relative="1" as="geometry" />
        </mxCell>
        <mxCell id="Md2F8njUrPGA3VP_r_Gf-13" value="10" style="ellipse;whiteSpace=wrap;html=1;aspect=fixed;" vertex="1" parent="1">
          <mxGeometry x="390" y="800" width="60" height="60" as="geometry" />
        </mxCell>
        <mxCell id="Md2F8njUrPGA3VP_r_Gf-36" style="edgeStyle=orthogonalEdgeStyle;rounded=0;orthogonalLoop=1;jettySize=auto;html=1;exitX=0.5;exitY=1;exitDx=0;exitDy=0;entryX=0.5;entryY=0;entryDx=0;entryDy=0;" edge="1" parent="1" source="Md2F8njUrPGA3VP_r_Gf-14">
          <mxGeometry relative="1" as="geometry">
            <mxPoint x="420" y="525" as="targetPoint" />
          </mxGeometry>
        </mxCell>
        <mxCell id="Md2F8njUrPGA3VP_r_Gf-14" value="7" style="ellipse;whiteSpace=wrap;html=1;aspect=fixed;" vertex="1" parent="1">
          <mxGeometry x="390" y="420" width="60" height="60" as="geometry" />
        </mxCell>
        <mxCell id="Md2F8njUrPGA3VP_r_Gf-35" style="edgeStyle=orthogonalEdgeStyle;rounded=0;orthogonalLoop=1;jettySize=auto;html=1;exitX=0.5;exitY=1;exitDx=0;exitDy=0;entryX=0.5;entryY=0;entryDx=0;entryDy=0;" edge="1" parent="1" source="Md2F8njUrPGA3VP_r_Gf-15" target="Md2F8njUrPGA3VP_r_Gf-14">
          <mxGeometry relative="1" as="geometry" />
        </mxCell>
        <mxCell id="Md2F8njUrPGA3VP_r_Gf-52" style="edgeStyle=orthogonalEdgeStyle;rounded=0;orthogonalLoop=1;jettySize=auto;html=1;" edge="1" parent="1" source="Md2F8njUrPGA3VP_r_Gf-15">
          <mxGeometry relative="1" as="geometry">
            <mxPoint x="320" y="340" as="targetPoint" />
          </mxGeometry>
        </mxCell>
        <mxCell id="Md2F8njUrPGA3VP_r_Gf-15" value="6" style="ellipse;whiteSpace=wrap;html=1;aspect=fixed;" vertex="1" parent="1">
          <mxGeometry x="390" y="310" width="60" height="60" as="geometry" />
        </mxCell>
        <mxCell id="Md2F8njUrPGA3VP_r_Gf-16" value="23" style="ellipse;whiteSpace=wrap;html=1;aspect=fixed;" vertex="1" parent="1">
          <mxGeometry x="10" y="990" width="60" height="60" as="geometry" />
        </mxCell>
        <mxCell id="Md2F8njUrPGA3VP_r_Gf-34" style="edgeStyle=orthogonalEdgeStyle;rounded=0;orthogonalLoop=1;jettySize=auto;html=1;exitX=0.5;exitY=1;exitDx=0;exitDy=0;entryX=0.5;entryY=0;entryDx=0;entryDy=0;" edge="1" parent="1" source="Md2F8njUrPGA3VP_r_Gf-17" target="Md2F8njUrPGA3VP_r_Gf-15">
          <mxGeometry relative="1" as="geometry" />
        </mxCell>
        <mxCell id="Md2F8njUrPGA3VP_r_Gf-17" value="5" style="ellipse;whiteSpace=wrap;html=1;aspect=fixed;" vertex="1" parent="1">
          <mxGeometry x="390" y="210" width="60" height="60" as="geometry" />
        </mxCell>
        <mxCell id="Md2F8njUrPGA3VP_r_Gf-33" style="edgeStyle=orthogonalEdgeStyle;rounded=0;orthogonalLoop=1;jettySize=auto;html=1;exitX=0.5;exitY=1;exitDx=0;exitDy=0;entryX=1;entryY=0.5;entryDx=0;entryDy=0;" edge="1" parent="1" source="Md2F8njUrPGA3VP_r_Gf-18" target="Md2F8njUrPGA3VP_r_Gf-17">
          <mxGeometry relative="1" as="geometry" />
        </mxCell>
        <mxCell id="Md2F8njUrPGA3VP_r_Gf-18" value="4" style="ellipse;whiteSpace=wrap;html=1;aspect=fixed;" vertex="1" parent="1">
          <mxGeometry x="510" y="130" width="60" height="60" as="geometry" />
        </mxCell>
        <mxCell id="Md2F8njUrPGA3VP_r_Gf-64" style="edgeStyle=orthogonalEdgeStyle;rounded=0;orthogonalLoop=1;jettySize=auto;html=1;exitX=0;exitY=1;exitDx=0;exitDy=0;entryX=1;entryY=0;entryDx=0;entryDy=0;" edge="1" parent="1" source="Md2F8njUrPGA3VP_r_Gf-19" target="Md2F8njUrPGA3VP_r_Gf-16">
          <mxGeometry relative="1" as="geometry" />
        </mxCell>
        <mxCell id="Md2F8njUrPGA3VP_r_Gf-19" value="22" style="ellipse;whiteSpace=wrap;html=1;aspect=fixed;" vertex="1" parent="1">
          <mxGeometry x="140" y="840" width="60" height="60" as="geometry" />
        </mxCell>
        <mxCell id="Md2F8njUrPGA3VP_r_Gf-76" style="edgeStyle=orthogonalEdgeStyle;rounded=0;orthogonalLoop=1;jettySize=auto;html=1;exitX=1;exitY=0.5;exitDx=0;exitDy=0;entryX=0.5;entryY=0;entryDx=0;entryDy=0;" edge="1" parent="1" source="Md2F8njUrPGA3VP_r_Gf-20" target="Md2F8njUrPGA3VP_r_Gf-75">
          <mxGeometry relative="1" as="geometry" />
        </mxCell>
        <mxCell id="Md2F8njUrPGA3VP_r_Gf-81" style="edgeStyle=orthogonalEdgeStyle;rounded=0;orthogonalLoop=1;jettySize=auto;html=1;exitX=0;exitY=0.5;exitDx=0;exitDy=0;entryX=0.5;entryY=0;entryDx=0;entryDy=0;" edge="1" parent="1" source="Md2F8njUrPGA3VP_r_Gf-20" target="Md2F8njUrPGA3VP_r_Gf-10">
          <mxGeometry relative="1" as="geometry" />
        </mxCell>
        <mxCell id="Md2F8njUrPGA3VP_r_Gf-20" value="21.2" style="ellipse;whiteSpace=wrap;html=1;aspect=fixed;" vertex="1" parent="1">
          <mxGeometry x="260" y="1010" width="60" height="60" as="geometry" />
        </mxCell>
        <mxCell id="Md2F8njUrPGA3VP_r_Gf-80" style="edgeStyle=orthogonalEdgeStyle;rounded=0;orthogonalLoop=1;jettySize=auto;html=1;exitX=0.5;exitY=0;exitDx=0;exitDy=0;entryX=0.5;entryY=1;entryDx=0;entryDy=0;" edge="1" parent="1" source="Md2F8njUrPGA3VP_r_Gf-21" target="Md2F8njUrPGA3VP_r_Gf-20">
          <mxGeometry relative="1" as="geometry" />
        </mxCell>
        <mxCell id="Md2F8njUrPGA3VP_r_Gf-21" value="21.3" style="ellipse;whiteSpace=wrap;html=1;aspect=fixed;" vertex="1" parent="1">
          <mxGeometry x="260" y="1100" width="60" height="60" as="geometry" />
        </mxCell>
        <mxCell id="Md2F8njUrPGA3VP_r_Gf-70" style="edgeStyle=orthogonalEdgeStyle;rounded=0;orthogonalLoop=1;jettySize=auto;html=1;exitX=1;exitY=0.5;exitDx=0;exitDy=0;entryX=0.5;entryY=1;entryDx=0;entryDy=0;" edge="1" parent="1" source="Md2F8njUrPGA3VP_r_Gf-23" target="Md2F8njUrPGA3VP_r_Gf-47">
          <mxGeometry relative="1" as="geometry" />
        </mxCell>
        <mxCell id="Md2F8njUrPGA3VP_r_Gf-23" value="13" style="ellipse;whiteSpace=wrap;html=1;aspect=fixed;" vertex="1" parent="1">
          <mxGeometry x="390" y="980" width="60" height="60" as="geometry" />
        </mxCell>
        <mxCell id="Md2F8njUrPGA3VP_r_Gf-27" value="" style="edgeStyle=orthogonalEdgeStyle;rounded=0;orthogonalLoop=1;jettySize=auto;html=1;" edge="1" parent="1" source="Md2F8njUrPGA3VP_r_Gf-24" target="Md2F8njUrPGA3VP_r_Gf-18">
          <mxGeometry relative="1" as="geometry" />
        </mxCell>
        <mxCell id="Md2F8njUrPGA3VP_r_Gf-32" style="edgeStyle=orthogonalEdgeStyle;rounded=0;orthogonalLoop=1;jettySize=auto;html=1;exitX=0.5;exitY=1;exitDx=0;exitDy=0;" edge="1" parent="1" source="Md2F8njUrPGA3VP_r_Gf-24" target="Md2F8njUrPGA3VP_r_Gf-17">
          <mxGeometry relative="1" as="geometry" />
        </mxCell>
        <mxCell id="Md2F8njUrPGA3VP_r_Gf-24" value="3" style="ellipse;whiteSpace=wrap;html=1;aspect=fixed;" vertex="1" parent="1">
          <mxGeometry x="390" y="90" width="60" height="60" as="geometry" />
        </mxCell>
        <mxCell id="Md2F8njUrPGA3VP_r_Gf-57" style="edgeStyle=orthogonalEdgeStyle;rounded=0;orthogonalLoop=1;jettySize=auto;html=1;exitX=0.5;exitY=1;exitDx=0;exitDy=0;entryX=0.5;entryY=0;entryDx=0;entryDy=0;" edge="1" parent="1" target="Md2F8njUrPGA3VP_r_Gf-20">
          <mxGeometry relative="1" as="geometry">
            <mxPoint x="290" y="970" as="sourcePoint" />
          </mxGeometry>
        </mxCell>
        <mxCell id="Md2F8njUrPGA3VP_r_Gf-46" style="edgeStyle=orthogonalEdgeStyle;rounded=0;orthogonalLoop=1;jettySize=auto;html=1;exitX=0.5;exitY=1;exitDx=0;exitDy=0;entryX=1;entryY=0.5;entryDx=0;entryDy=0;" edge="1" parent="1" source="Md2F8njUrPGA3VP_r_Gf-42" target="Md2F8njUrPGA3VP_r_Gf-11">
          <mxGeometry relative="1" as="geometry" />
        </mxCell>
        <mxCell id="Md2F8njUrPGA3VP_r_Gf-42" value="11" style="ellipse;whiteSpace=wrap;html=1;aspect=fixed;" vertex="1" parent="1">
          <mxGeometry x="510" y="850" width="60" height="60" as="geometry" />
        </mxCell>
        <mxCell id="Md2F8njUrPGA3VP_r_Gf-71" style="edgeStyle=orthogonalEdgeStyle;rounded=0;orthogonalLoop=1;jettySize=auto;html=1;exitX=1;exitY=0.5;exitDx=0;exitDy=0;entryX=1;entryY=0.5;entryDx=0;entryDy=0;" edge="1" parent="1" source="Md2F8njUrPGA3VP_r_Gf-47" target="Md2F8njUrPGA3VP_r_Gf-8">
          <mxGeometry relative="1" as="geometry" />
        </mxCell>
        <mxCell id="Md2F8njUrPGA3VP_r_Gf-47" value="8.3" style="ellipse;whiteSpace=wrap;html=1;aspect=fixed;" vertex="1" parent="1">
          <mxGeometry x="720" y="980" width="60" height="60" as="geometry" />
        </mxCell>
        <mxCell id="Md2F8njUrPGA3VP_r_Gf-69" value="8.1" style="ellipse;whiteSpace=wrap;html=1;aspect=fixed;" vertex="1" parent="1">
          <mxGeometry x="390" y="525" width="60" height="60" as="geometry" />
        </mxCell>
        <mxCell id="Md2F8njUrPGA3VP_r_Gf-72" value="14,15,16" style="ellipse;whiteSpace=wrap;html=1;aspect=fixed;" vertex="1" parent="1">
          <mxGeometry x="260" y="310" width="60" height="60" as="geometry" />
        </mxCell>
        <mxCell id="Md2F8njUrPGA3VP_r_Gf-74" value="21.1" style="ellipse;whiteSpace=wrap;html=1;aspect=fixed;" vertex="1" parent="1">
          <mxGeometry x="260" y="910" width="60" height="60" as="geometry" />
        </mxCell>
        <mxCell id="Md2F8njUrPGA3VP_r_Gf-78" style="edgeStyle=orthogonalEdgeStyle;rounded=0;orthogonalLoop=1;jettySize=auto;html=1;exitX=0.5;exitY=1;exitDx=0;exitDy=0;" edge="1" parent="1" source="Md2F8njUrPGA3VP_r_Gf-75" target="Md2F8njUrPGA3VP_r_Gf-77">
          <mxGeometry relative="1" as="geometry" />
        </mxCell>
        <mxCell id="Md2F8njUrPGA3VP_r_Gf-75" value="24" style="ellipse;whiteSpace=wrap;html=1;aspect=fixed;" vertex="1" parent="1">
          <mxGeometry x="400" y="1090" width="70" height="70" as="geometry" />
        </mxCell>
        <mxCell id="Md2F8njUrPGA3VP_r_Gf-77" value="25" style="ellipse;whiteSpace=wrap;html=1;aspect=fixed;" vertex="1" parent="1">
          <mxGeometry x="-190" y="1080" width="60" height="60" as="geometry" />
        </mxCell>
        <mxCell id="Md2F8njUrPGA3VP_r_Gf-85" style="edgeStyle=orthogonalEdgeStyle;rounded=0;orthogonalLoop=1;jettySize=auto;html=1;exitX=0.5;exitY=1;exitDx=0;exitDy=0;entryX=0;entryY=0.5;entryDx=0;entryDy=0;" edge="1" parent="1" source="Md2F8njUrPGA3VP_r_Gf-83" target="Md2F8njUrPGA3VP_r_Gf-77">
          <mxGeometry relative="1" as="geometry" />
        </mxCell>
        <mxCell id="Md2F8njUrPGA3VP_r_Gf-83" value="18" style="ellipse;whiteSpace=wrap;html=1;aspect=fixed;" vertex="1" parent="1">
          <mxGeometry x="-10" y="670" width="60" height="60" as="geometry" />
        </mxCell>
        <mxCell id="Md2F8njUrPGA3VP_r_Gf-91" value="" style="endArrow=classic;html=1;rounded=0;exitX=0;exitY=0.5;exitDx=0;exitDy=0;" edge="1" parent="1" source="Md2F8njUrPGA3VP_r_Gf-16">
          <mxGeometry width="50" height="50" relative="1" as="geometry">
            <mxPoint x="-100" y="1020" as="sourcePoint" />
            <mxPoint x="-140" y="1090" as="targetPoint" />
          </mxGeometry>
        </mxCell>
      </root>
    </mxGraphModel>
  </diagram>
</mxfile>
